<svg xmlns="http://www.w3.org/2000/svg" xmlns:xlink="http://www.w3.org/1999/xlink" width="1040" height="581.04"><rect width="1040" height="581.04" rx="5" ry="5" class="a"/><svg y="0%" x="0%"><circle cx="20" cy="20" r="6" fill="#ff5f58"/><circle cx="40" cy="20" r="6" fill="#ffbd2e"/><circle cx="60" cy="20" r="6" fill="#18c132"/></svg><svg height="521.04" viewBox="0 0 100 52.104" width="1000" x="15" xmlns="http://www.w3.org/2000/svg" xmlns:xlink="http://www.w3.org/1999/xlink" y="50"><style>@keyframes h{0%{transform:translateX(0)}2.25%{transform:translateX(-100px)}2.66%{transform:translateX(-200px)}3.08%{transform:translateX(-300px)}3.47%{transform:translateX(-400px)}3.85%{transform:translateX(-500px)}4.27%{transform:translateX(-600px)}4.67%{transform:translateX(-700px)}5.08%{transform:translateX(-800px)}5.48%{transform:translateX(-900px)}5.87%{transform:translateX(-1000px)}6.27%{transform:translateX(-1100px)}6.66%{transform:translateX(-1200px)}7.06%{transform:translateX(-1300px)}7.59%{transform:translateX(-1400px)}7.98%{transform:translateX(-1500px)}8.38%{transform:translateX(-1600px)}8.79%{transform:translateX(-1700px)}9.22%{transform:translateX(-1800px)}11.04%{transform:translateX(-2200px)}13.44%{transform:translateX(-2300px)}13.89%{transform:translateX(-2400px)}14.28%{transform:translateX(-2500px)}14.68%{transform:translateX(-2600px)}15.08%{transform:translateX(-2700px)}15.48%{transform:translateX(-2800px)}15.89%{transform:translateX(-2900px)}16.31%{transform:translateX(-3000px)}16.73%{transform:translateX(-3100px)}17.16%{transform:translateX(-3200px)}17.59%{transform:translateX(-3300px)}17.99%{transform:translateX(-3400px)}18.41%{transform:translateX(-3500px)}18.83%{transform:translateX(-3600px)}19.25%{transform:translateX(-3700px)}19.64%{transform:translateX(-3800px)}20.03%{transform:translateX(-3900px)}20.46%{transform:translateX(-4000px)}20.87%{transform:translateX(-4100px)}21.29%{transform:translateX(-4200px)}21.69%{transform:translateX(-4300px)}22.11%{transform:translateX(-4400px)}22.53%{transform:translateX(-4500px)}22.94%{transform:translateX(-4600px)}23.36%{transform:translateX(-4700px)}23.78%{transform:translateX(-4800px)}24.2%{transform:translateX(-4900px)}24.61%{transform:translateX(-5000px)}25%{transform:translateX(-5100px)}25.41%{transform:translateX(-5200px)}27.61%{transform:translateX(-5400px)}32.32%{transform:translateX(-5600px)}35.35%{transform:translateX(-5700px)}35.77%{transform:translateX(-5800px)}36.17%{transform:translateX(-5900px)}36.57%{transform:translateX(-6000px)}36.96%{transform:translateX(-6100px)}37.35%{transform:translateX(-6200px)}37.74%{transform:translateX(-6300px)}38.13%{transform:translateX(-6400px)}38.52%{transform:translateX(-6500px)}38.91%{transform:translateX(-6600px)}39.3%{transform:translateX(-6700px)}39.67%{transform:translateX(-6800px)}40.09%{transform:translateX(-6900px)}40.49%{transform:translateX(-7000px)}40.91%{transform:translateX(-7100px)}41.31%{transform:translateX(-7200px)}41.72%{transform:translateX(-7300px)}42.11%{transform:translateX(-7400px)}42.52%{transform:translateX(-7500px)}44.77%{transform:translateX(-7600px)}46.58%{transform:translateX(-7700px)}46.64%{transform:translateX(-7800px)}47.06%{transform:translateX(-7900px)}47.46%{transform:translateX(-8000px)}47.88%{transform:translateX(-8100px)}48.29%{transform:translateX(-8200px)}48.71%{transform:translateX(-8300px)}49.11%{transform:translateX(-8400px)}51.29%{transform:translateX(-8500px)}57.19%{transform:translateX(-8600px)}59.01%{transform:translateX(-8800px)}64.91%{transform:translateX(-8900px)}70.79%{transform:translateX(-9000px)}}.a{fill:#282d35}.f{fill:#b9c0cb;white-space:pre}</style><g font-family="Monaco,Consolas,Menlo,'Bitstream Vera Sans Mono','Powerline Symbols',monospace" font-size="1.67"><defs><symbol id="1"><text y="1.67" class="f">$</text></symbol><symbol id="2"><text y="1.67" class="f">$</text><text x="2.004" y="1.67" class="f">k</text></symbol><symbol id="3"><text y="1.67" class="f">$</text><text x="2.004" y="1.67" class="f">ku</text></symbol><symbol id="4"><text y="1.67" class="f">$</text><text x="2.004" y="1.67" class="f">kub</text></symbol><symbol id="5"><text y="1.67" class="f">$</text><text x="2.004" y="1.67" class="f">kube</text></symbol><symbol id="6"><text y="1.67" class="f">$</text><text x="2.004" y="1.67" class="f">kubec</text></symbol><symbol id="7"><text y="1.67" class="f">$</text><text x="2.004" y="1.67" class="f">kubect</text></symbol><symbol id="8"><text y="1.67" class="f">$</text><text x="2.004" y="1.67" class="f">kubectl</text></symbol><symbol id="9"><text y="1.67" class="f">$</text><text x="2.004" y="1.67" class="f">kubectl</text><text x="10.02" y="1.67" class="f">get</text></symbol><symbol id="10"><text y="1.67" class="f">$</text><text x="2.004" y="1.67" class="f">kubectl</text><text x="10.02" y="1.67" class="f">get</text><text x="14.028" y="1.67" class="f">pod</text></symbol><symbol id="11"><text y="1.67" class="f">NAME</text><text x="9.018" y="1.67" class="f">READY</text><text x="17.034" y="1.67" class="f">STATUS</text><text x="27.054" y="1.67" class="f">RESTARTS</text><text x="38.076" y="1.67" class="f">AGE</text></symbol><symbol id="12"><text y="1.67" class="f">demo-a</text><text x="9.018" y="1.67" class="f">1/1</text><text x="17.034" y="1.67" class="f">Running</text><text x="27.054" y="1.67" class="f">0</text><text x="38.076" y="1.67" class="f">12s</text></symbol><symbol id="13"><text y="1.67" class="f">demo-b</text><text x="9.018" y="1.67" class="f">1/1</text><text x="17.034" y="1.67" class="f">Running</text><text x="27.054" y="1.67" class="f">0</text><text x="38.076" y="1.67" class="f">12s</text></symbol><symbol id="14"><text y="1.67" class="f">$</text><text x="2.004" y="1.67" class="f">kubectl</text><text x="10.02" y="1.67" class="f">w</text></symbol><symbol id="15"><text y="1.67" class="f">$</text><text x="2.004" y="1.67" class="f">kubectl</text><text x="10.02" y="1.67" class="f">wa</text></symbol><symbol id="16"><text y="1.67" class="f">$</text><text x="2.004" y="1.67" class="f">kubectl</text><text x="10.02" y="1.67" class="f">wai</text></symbol><symbol id="17"><text y="1.67" class="f">$</text><text x="2.004" y="1.67" class="f">kubectl</text><text x="10.02" y="1.67" class="f">wait</text></symbol><symbol id="18"><text y="1.67" class="f">$</text><text x="2.004" y="1.67" class="f">kubectl</text><text x="10.02" y="1.67" class="f">wait</text><text x="15.03" y="1.67" class="f">pod</text></symbol><symbol id="19"><text y="1.67" class="f">$</text><text x="2.004" y="1.67" class="f">kubectl</text><text x="10.02" y="1.67" class="f">wait</text><text x="15.03" y="1.67" class="f">pod</text><text x="19.038" y="1.67" class="f">demo-a</text></symbol><symbol id="20"><text y="1.67" class="f">$</text><text x="2.004" y="1.67" class="f">kubectl</text><text x="10.02" y="1.67" class="f">wait</text><text x="15.03" y="1.67" class="f">pod</text><text x="19.038" y="1.67" class="f">demo-a</text><text x="26.052" y="1.67" class="f">--for</text></symbol><symbol id="21"><text y="1.67" class="f">$</text><text x="2.004" y="1.67" class="f">kubectl</text><text x="10.02" y="1.67" class="f">waitx</text></symbol><symbol id="22"><text y="1.67" class="f">$</text><text x="2.004" y="1.67" class="f">kubectl</text><text x="10.02" y="1.67" class="f">waitx</text><text x="16.032" y="1.67" class="f">pod</text></symbol><symbol id="23"><text y="1.67" class="f">$</text><text x="2.004" y="1.67" class="f">kubectl</text><text x="10.02" y="1.67" class="f">waitx</text><text x="16.032" y="1.67" class="f">pod</text><text x="20.04" y="1.67" class="f">d</text></symbol><symbol id="24"><text y="1.67" class="f">$</text><text x="2.004" y="1.67" class="f">kubectl</text><text x="10.02" y="1.67" class="f">waitx</text><text x="16.032" y="1.67" class="f">pod</text><text x="20.04" y="1.67" class="f">demo-a</text></symbol><symbol id="25"><text y="1.67" class="f">$</text><text x="2.004" y="1.67" class="f">kubectl</text><text x="10.02" y="1.67" class="f">waitx</text><text x="16.032" y="1.67" class="f">pod</text><text x="20.04" y="1.67" class="f">demo-a</text><text x="27.054" y="1.67" class="f">--for=</text></symbol><symbol id="26"><text y="1.67" class="f">$</text><text x="2.004" y="1.67" class="f">kubectl</text><text x="10.02" y="1.67" class="f">waitx</text><text x="16.032" y="1.67" class="f">pod</text><text x="20.04" y="1.67" class="f">demo-a</text><text x="27.054" y="1.67" class="f">--for=condition=</text></symbol><symbol id="27"><text y="1.67" class="f">ContainersReady</text><text x="27.054" y="1.67" class="f">PodReadyToStartContainers</text><text x="54.108" y="1.67" class="f">Ready</text></symbol><symbol id="28"><text y="1.67" class="f">$</text><text x="2.004" y="1.67" class="f">kubectl</text><text x="10.02" y="1.67" class="f">waitx</text><text x="16.032" y="1.67" class="f">pod</text><text x="20.04" y="1.67" class="f">demo-a</text><text x="27.054" y="1.67" class="f">--for=condition=Ready</text></symbol><symbol id="a"><path fill="transparent" d="M0 0h100v25H0z"/></symbol></defs><path class="a" d="M0 0h100v52.104H0z"/><g style="animation-duration:17.16285s;animation-iteration-count:infinite;animation-name:h;animation-timing-function:steps(1,end)"><svg width="9100"><svg><use xlink:href="#a"/></svg><svg x="100"><use xlink:href="#a"/><use xlink:href="#1"/></svg><svg x="200"><use xlink:href="#a"/><use xlink:href="#1"/></svg><svg x="300"><use xlink:href="#a"/><use xlink:href="#2"/></svg><svg x="400"><use xlink:href="#a"/><use xlink:href="#3"/></svg><svg x="500"><use xlink:href="#a"/><use xlink:href="#4"/></svg><svg x="600"><use xlink:href="#a"/><use xlink:href="#5"/></svg><svg x="700"><use xlink:href="#a"/><use xlink:href="#6"/></svg><svg x="800"><use xlink:href="#a"/><use xlink:href="#7"/></svg><svg x="900"><use xlink:href="#a"/><use xlink:href="#8"/></svg><svg x="1000"><use xlink:href="#a"/><use xlink:href="#8"/></svg><svg x="1100"><use xlink:href="#a"/><text y="1.67" class="f">$</text><text x="2.004" y="1.67" class="f">kubectl</text><text x="10.02" y="1.67" class="f">g</text></svg><svg x="1200"><use xlink:href="#a"/><text y="1.67" class="f">$</text><text x="2.004" y="1.67" class="f">kubectl</text><text x="10.02" y="1.67" class="f">ge</text></svg><svg x="1300"><use xlink:href="#a"/><use xlink:href="#9"/></svg><svg x="1400"><use xlink:href="#a"/><use xlink:href="#9"/></svg><svg x="1500"><use xlink:href="#a"/><text y="1.67" class="f">$</text><text x="2.004" y="1.67" class="f">kubectl</text><text x="10.02" y="1.67" class="f">get</text><text x="14.028" y="1.67" class="f">p</text></svg><svg x="1600"><use xlink:href="#a"/><text y="1.67" class="f">$</text><text x="2.004" y="1.67" class="f">kubectl</text><text x="10.02" y="1.67" class="f">get</text><text x="14.028" y="1.67" class="f">po</text></svg><svg x="1700"><use xlink:href="#a"/><use xlink:href="#10"/></svg><svg x="1800"><use xlink:href="#a"/><use xlink:href="#10"/></svg><svg x="1900"><use xlink:href="#a"/><use xlink:href="#10"/><use xlink:href="#11" y="2.171"/></svg><svg x="2000"><use xlink:href="#a"/><use xlink:href="#10"/><use xlink:href="#11" y="2.171"/><use xlink:href="#12" y="4.342"/></svg><svg x="2100"><use xlink:href="#a"/><use xlink:href="#10"/><use xlink:href="#11" y="2.171"/><use xlink:href="#12" y="4.342"/><use xlink:href="#13" y="6.513"/></svg><svg x="2200"><use xlink:href="#a"/><use xlink:href="#10"/><use xlink:href="#11" y="2.171"/><use xlink:href="#12" y="4.342"/><use xlink:href="#13" y="6.513"/><use xlink:href="#1" y="10.855"/></svg><svg x="2300"><use xlink:href="#a"/><use xlink:href="#10"/><use xlink:href="#11" y="2.171"/><use xlink:href="#12" y="4.342"/><use xlink:href="#13" y="6.513"/><use xlink:href="#2" y="10.855"/></svg><svg x="2400"><use xlink:href="#a"/><use xlink:href="#10"/><use xlink:href="#11" y="2.171"/><use xlink:href="#12" y="4.342"/><use xlink:href="#13" y="6.513"/><use xlink:href="#3" y="10.855"/></svg><svg x="2500"><use xlink:href="#a"/><use xlink:href="#10"/><use xlink:href="#11" y="2.171"/><use xlink:href="#12" y="4.342"/><use xlink:href="#13" y="6.513"/><use xlink:href="#4" y="10.855"/></svg><svg x="2600"><use xlink:href="#a"/><use xlink:href="#10"/><use xlink:href="#11" y="2.171"/><use xlink:href="#12" y="4.342"/><use xlink:href="#13" y="6.513"/><use xlink:href="#5" y="10.855"/></svg><svg x="2700"><use xlink:href="#a"/><use xlink:href="#10"/><use xlink:href="#11" y="2.171"/><use xlink:href="#12" y="4.342"/><use xlink:href="#13" y="6.513"/><use xlink:href="#6" y="10.855"/></svg><svg x="2800"><use xlink:href="#a"/><use xlink:href="#10"/><use xlink:href="#11" y="2.171"/><use xlink:href="#12" y="4.342"/><use xlink:href="#13" y="6.513"/><use xlink:href="#7" y="10.855"/></svg><svg x="2900"><use xlink:href="#a"/><use xlink:href="#10"/><use xlink:href="#11" y="2.171"/><use xlink:href="#12" y="4.342"/><use xlink:href="#13" y="6.513"/><use xlink:href="#8" y="10.855"/></svg><svg x="3000"><use xlink:href="#a"/><use xlink:href="#10"/><use xlink:href="#11" y="2.171"/><use xlink:href="#12" y="4.342"/><use xlink:href="#13" y="6.513"/><use xlink:href="#8" y="10.855"/></svg><svg x="3100"><use xlink:href="#a"/><use xlink:href="#10"/><use xlink:href="#11" y="2.171"/><use xlink:href="#12" y="4.342"/><use xlink:href="#13" y="6.513"/><use xlink:href="#14" y="10.855"/></svg><svg x="3200"><use xlink:href="#a"/><use xlink:href="#10"/><use xlink:href="#11" y="2.171"/><use xlink:href="#12" y="4.342"/><use xlink:href="#13" y="6.513"/><use xlink:href="#15" y="10.855"/></svg><svg x="3300"><use xlink:href="#a"/><use xlink:href="#10"/><use xlink:href="#11" y="2.171"/><use xlink:href="#12" y="4.342"/><use xlink:href="#13" y="6.513"/><use xlink:href="#16" y="10.855"/></svg><svg x="3400"><use xlink:href="#a"/><use xlink:href="#10"/><use xlink:href="#11" y="2.171"/><use xlink:href="#12" y="4.342"/><use xlink:href="#13" y="6.513"/><use xlink:href="#17" y="10.855"/></svg><svg x="3500"><use xlink:href="#a"/><use xlink:href="#10"/><use xlink:href="#11" y="2.171"/><use xlink:href="#12" y="4.342"/><use xlink:href="#13" y="6.513"/><use xlink:href="#17" y="10.855"/></svg><svg x="3600"><use xlink:href="#a"/><use xlink:href="#10"/><use xlink:href="#11" y="2.171"/><use xlink:href="#12" y="4.342"/><use xlink:href="#13" y="6.513"/><text y="12.525" class="f">$</text><text x="2.004" y="12.525" class="f">kubectl</text><text x="10.02" y="12.525" class="f">wait</text><text x="15.03" y="12.525" class="f">p</text></svg><svg x="3700"><use xlink:href="#a"/><use xlink:href="#10"/><use xlink:href="#11" y="2.171"/><use xlink:href="#12" y="4.342"/><use xlink:href="#13" y="6.513"/><text y="12.525" class="f">$</text><text x="2.004" y="12.525" class="f">kubectl</text><text x="10.02" y="12.525" class="f">wait</text><text x="15.03" y="12.525" class="f">po</text></svg><svg x="3800"><use xlink:href="#a"/><use xlink:href="#10"/><use xlink:href="#11" y="2.171"/><use xlink:href="#12" y="4.342"/><use xlink:href="#13" y="6.513"/><use xlink:href="#18" y="10.855"/></svg><svg x="3900"><use xlink:href="#a"/><use xlink:href="#10"/><use xlink:href="#11" y="2.171"/><use xlink:href="#12" y="4.342"/><use xlink:href="#13" y="6.513"/><use xlink:href="#18" y="10.855"/></svg><svg x="4000"><use xlink:href="#a"/><use xlink:href="#10"/><use xlink:href="#11" y="2.171"/><use xlink:href="#12" y="4.342"/><use xlink:href="#13" y="6.513"/><text y="12.525" class="f">$</text><text x="2.004" y="12.525" class="f">kubectl</text><text x="10.02" y="12.525" class="f">wait</text><text x="15.03" y="12.525" class="f">pod</text><text x="19.038" y="12.525" class="f">d</text></svg><svg x="4100"><use xlink:href="#a"/><use xlink:href="#10"/><use xlink:href="#11" y="2.171"/><use xlink:href="#12" y="4.342"/><use xlink:href="#13" y="6.513"/><text y="12.525" class="f">$</text><text x="2.004" y="12.525" class="f">kubectl</text><text x="10.02" y="12.525" class="f">wait</text><text x="15.03" y="12.525" class="f">pod</text><text x="19.038" y="12.525" class="f">de</text></svg><svg x="4200"><use xlink:href="#a"/><use xlink:href="#10"/><use xlink:href="#11" y="2.171"/><use xlink:href="#12" y="4.342"/><use xlink:href="#13" y="6.513"/><text y="12.525" class="f">$</text><text x="2.004" y="12.525" class="f">kubectl</text><text x="10.02" y="12.525" class="f">wait</text><text x="15.03" y="12.525" class="f">pod</text><text x="19.038" y="12.525" class="f">dem</text></svg><svg x="4300"><use xlink:href="#a"/><use xlink:href="#10"/><use xlink:href="#11" y="2.171"/><use xlink:href="#12" y="4.342"/><use xlink:href="#13" y="6.513"/><text y="12.525" class="f">$</text><text x="2.004" y="12.525" class="f">kubectl</text><text x="10.02" y="12.525" class="f">wait</text><text x="15.03" y="12.525" class="f">pod</text><text x="19.038" y="12.525" class="f">demo</text></svg><svg x="4400"><use xlink:href="#a"/><use xlink:href="#10"/><use xlink:href="#11" y="2.171"/><use xlink:href="#12" y="4.342"/><use xlink:href="#13" y="6.513"/><text y="12.525" class="f">$</text><text x="2.004" y="12.525" class="f">kubectl</text><text x="10.02" y="12.525" class="f">wait</text><text x="15.03" y="12.525" class="f">pod</text><text x="19.038" y="12.525" class="f">demo-</text></svg><svg x="4500"><use xlink:href="#a"/><use xlink:href="#10"/><use xlink:href="#11" y="2.171"/><use xlink:href="#12" y="4.342"/><use xlink:href="#13" y="6.513"/><use xlink:href="#19" y="10.855"/></svg><svg x="4600"><use xlink:href="#a"/><use xlink:href="#10"/><use xlink:href="#11" y="2.171"/><use xlink:href="#12" y="4.342"/><use xlink:href="#13" y="6.513"/><use xlink:href="#19" y="10.855"/></svg><svg x="4700"><use xlink:href="#a"/><use xlink:href="#10"/><use xlink:href="#11" y="2.171"/><use xlink:href="#12" y="4.342"/><use xlink:href="#13" y="6.513"/><text y="12.525" class="f">$</text><text x="2.004" y="12.525" class="f">kubectl</text><text x="10.02" y="12.525" class="f">wait</text><text x="15.03" y="12.525" class="f">pod</text><text x="19.038" y="12.525" class="f">demo-a</text><text x="26.052" y="12.525" class="f">-</text></svg><svg x="4800"><use xlink:href="#a"/><use xlink:href="#10"/><use xlink:href="#11" y="2.171"/><use xlink:href="#12" y="4.342"/><use xlink:href="#13" y="6.513"/><text y="12.525" class="f">$</text><text x="2.004" y="12.525" class="f">kubectl</text><text x="10.02" y="12.525" class="f">wait</text><text x="15.03" y="12.525" class="f">pod</text><text x="19.038" y="12.525" class="f">demo-a</text><text x="26.052" y="12.525" class="f">--</text></svg><svg x="4900"><use xlink:href="#a"/><use xlink:href="#10"/><use xlink:href="#11" y="2.171"/><use xlink:href="#12" y="4.342"/><use xlink:href="#13" y="6.513"/><text y="12.525" class="f">$</text><text x="2.004" y="12.525" class="f">kubectl</text><text x="10.02" y="12.525" class="f">wait</text><text x="15.03" y="12.525" class="f">pod</text><text x="19.038" y="12.525" class="f">demo-a</text><text x="26.052" y="12.525" class="f">--f</text></svg><svg x="5000"><use xlink:href="#a"/><use xlink:href="#10"/><use xlink:href="#11" y="2.171"/><use xlink:href="#12" y="4.342"/><use xlink:href="#13" y="6.513"/><text y="12.525" class="f">$</text><text x="2.004" y="12.525" class="f">kubectl</text><text x="10.02" y="12.525" class="f">wait</text><text x="15.03" y="12.525" class="f">pod</text><text x="19.038" y="12.525" class="f">demo-a</text><text x="26.052" y="12.525" class="f">--fo</text></svg><svg x="5100"><use xlink:href="#a"/><use xlink:href="#10"/><use xlink:href="#11" y="2.171"/><use xlink:href="#12" y="4.342"/><use xlink:href="#13" y="6.513"/><use xlink:href="#20" y="10.855"/></svg><svg x="5200"><use xlink:href="#a"/><use xlink:href="#10"/><use xlink:href="#11" y="2.171"/><use xlink:href="#12" y="4.342"/><use xlink:href="#13" y="6.513"/><use xlink:href="#20" y="10.855"/></svg><svg x="5300"><use xlink:href="#a"/><use xlink:href="#10"/><use xlink:href="#11" y="2.171"/><use xlink:href="#12" y="4.342"/><use xlink:href="#13" y="6.513"/><use xlink:href="#20" y="10.855"/></svg><svg x="5400"><use xlink:href="#a"/><use xlink:href="#10"/><use xlink:href="#11" y="2.171"/><use xlink:href="#12" y="4.342"/><use xlink:href="#13" y="6.513"/><use xlink:href="#20" y="10.855"/><text y="14.696" class="f">CHANGELOG.md</text><text x="14.028" y="14.696" class="f">go.sum</text><text x="28.056" y="14.696" class="f">internal/</text><text x="42.084" y="14.696" class="f">Makefile</text><text x="56.112" y="14.696" class="f">README.md</text><text y="16.867" class="f">go.mod</text><text x="14.028" y="16.867" class="f">hack/</text><text x="28.056" y="16.867" class="f">main.go</text><text x="42.084" y="16.867" class="f">plugins/</text></svg><svg x="5500"><use xlink:href="#a"/><use xlink:href="#10"/><use xlink:href="#11" y="2.171"/><use xlink:href="#12" y="4.342"/><use xlink:href="#13" y="6.513"/><use xlink:href="#20" y="10.855"/></svg><svg x="5600"><use xlink:href="#a"/><use xlink:href="#10"/><use xlink:href="#11" y="2.171"/><use xlink:href="#12" y="4.342"/><use xlink:href="#13" y="6.513"/><use xlink:href="#20" y="10.855"/><use xlink:href="#1" y="15.197"/></svg><svg x="5700"><use xlink:href="#a"/><use xlink:href="#10"/><use xlink:href="#11" y="2.171"/><use xlink:href="#12" y="4.342"/><use xlink:href="#13" y="6.513"/><use xlink:href="#20" y="10.855"/><use xlink:href="#2" y="15.197"/></svg><svg x="5800"><use xlink:href="#a"/><use xlink:href="#10"/><use xlink:href="#11" y="2.171"/><use xlink:href="#12" y="4.342"/><use xlink:href="#13" y="6.513"/><use xlink:href="#20" y="10.855"/><use xlink:href="#3" y="15.197"/></svg><svg x="5900"><use xlink:href="#a"/><use xlink:href="#10"/><use xlink:href="#11" y="2.171"/><use xlink:href="#12" y="4.342"/><use xlink:href="#13" y="6.513"/><use xlink:href="#20" y="10.855"/><use xlink:href="#4" y="15.197"/></svg><svg x="6000"><use xlink:href="#a"/><use xlink:href="#10"/><use xlink:href="#11" y="2.171"/><use xlink:href="#12" y="4.342"/><use xlink:href="#13" y="6.513"/><use xlink:href="#20" y="10.855"/><use xlink:href="#5" y="15.197"/></svg><svg x="6100"><use xlink:href="#a"/><use xlink:href="#10"/><use xlink:href="#11" y="2.171"/><use xlink:href="#12" y="4.342"/><use xlink:href="#13" y="6.513"/><use xlink:href="#20" y="10.855"/><use xlink:href="#6" y="15.197"/></svg><svg x="6200"><use xlink:href="#a"/><use xlink:href="#10"/><use xlink:href="#11" y="2.171"/><use xlink:href="#12" y="4.342"/><use xlink:href="#13" y="6.513"/><use xlink:href="#20" y="10.855"/><use xlink:href="#7" y="15.197"/></svg><svg x="6300"><use xlink:href="#a"/><use xlink:href="#10"/><use xlink:href="#11" y="2.171"/><use xlink:href="#12" y="4.342"/><use xlink:href="#13" y="6.513"/><use xlink:href="#20" y="10.855"/><use xlink:href="#8" y="15.197"/></svg><svg x="6400"><use xlink:href="#a"/><use xlink:href="#10"/><use xlink:href="#11" y="2.171"/><use xlink:href="#12" y="4.342"/><use xlink:href="#13" y="6.513"/><use xlink:href="#20" y="10.855"/><use xlink:href="#8" y="15.197"/></svg><svg x="6500"><use xlink:href="#a"/><use xlink:href="#10"/><use xlink:href="#11" y="2.171"/><use xlink:href="#12" y="4.342"/><use xlink:href="#13" y="6.513"/><use xlink:href="#20" y="10.855"/><use xlink:href="#14" y="15.197"/></svg><svg x="6600"><use xlink:href="#a"/><use xlink:href="#10"/><use xlink:href="#11" y="2.171"/><use xlink:href="#12" y="4.342"/><use xlink:href="#13" y="6.513"/><use xlink:href="#20" y="10.855"/><use xlink:href="#15" y="15.197"/></svg><svg x="6700"><use xlink:href="#a"/><use xlink:href="#10"/><use xlink:href="#11" y="2.171"/><use xlink:href="#12" y="4.342"/><use xlink:href="#13" y="6.513"/><use xlink:href="#20" y="10.855"/><use xlink:href="#16" y="15.197"/></svg><svg x="6800"><use xlink:href="#a"/><use xlink:href="#10"/><use xlink:href="#11" y="2.171"/><use xlink:href="#12" y="4.342"/><use xlink:href="#13" y="6.513"/><use xlink:href="#20" y="10.855"/><use xlink:href="#17" y="15.197"/></svg><svg x="6900"><use xlink:href="#a"/><use xlink:href="#10"/><use xlink:href="#11" y="2.171"/><use xlink:href="#12" y="4.342"/><use xlink:href="#13" y="6.513"/><use xlink:href="#20" y="10.855"/><use xlink:href="#21" y="15.197"/></svg><svg x="7000"><use xlink:href="#a"/><use xlink:href="#10"/><use xlink:href="#11" y="2.171"/><use xlink:href="#12" y="4.342"/><use xlink:href="#13" y="6.513"/><use xlink:href="#20" y="10.855"/><use xlink:href="#21" y="15.197"/></svg><svg x="7100"><use xlink:href="#a"/><use xlink:href="#10"/><use xlink:href="#11" y="2.171"/><use xlink:href="#12" y="4.342"/><use xlink:href="#13" y="6.513"/><use xlink:href="#20" y="10.855"/><text y="16.867" class="f">$</text><text x="2.004" y="16.867" class="f">kubectl</text><text x="10.02" y="16.867" class="f">waitx</text><text x="16.032" y="16.867" class="f">p</text></svg><svg x="7200"><use xlink:href="#a"/><use xlink:href="#10"/><use xlink:href="#11" y="2.171"/><use xlink:href="#12" y="4.342"/><use xlink:href="#13" y="6.513"/><use xlink:href="#20" y="10.855"/><text y="16.867" class="f">$</text><text x="2.004" y="16.867" class="f">kubectl</text><text x="10.02" y="16.867" class="f">waitx</text><text x="16.032" y="16.867" class="f">po</text></svg><svg x="7300"><use xlink:href="#a"/><use xlink:href="#10"/><use xlink:href="#11" y="2.171"/><use xlink:href="#12" y="4.342"/><use xlink:href="#13" y="6.513"/><use xlink:href="#20" y="10.855"/><use xlink:href="#22" y="15.197"/></svg><svg x="7400"><use xlink:href="#a"/><use xlink:href="#10"/><use xlink:href="#11" y="2.171"/><use xlink:href="#12" y="4.342"/><use xlink:href="#13" y="6.513"/><use xlink:href="#20" y="10.855"/><use xlink:href="#22" y="15.197"/></svg><svg x="7500"><use xlink:href="#a"/><use xlink:href="#10"/><use xlink:href="#11" y="2.171"/><use xlink:href="#12" y="4.342"/><use xlink:href="#13" y="6.513"/><use xlink:href="#20" y="10.855"/><use xlink:href="#23" y="15.197"/></svg><svg x="7600"><use xlink:href="#a"/><use xlink:href="#10"/><use xlink:href="#11" y="2.171"/><use xlink:href="#12" y="4.342"/><use xlink:href="#13" y="6.513"/><use xlink:href="#20" y="10.855"/><use xlink:href="#23" y="15.197"/><text y="19.038" class="f">demo-a</text><text x="8.016" y="19.038" class="f">demo-b</text></svg><svg x="7700"><use xlink:href="#a"/><use xlink:href="#10"/><use xlink:href="#11" y="2.171"/><use xlink:href="#12" y="4.342"/><use xlink:href="#13" y="6.513"/><use xlink:href="#20" y="10.855"/><use xlink:href="#24" y="15.197"/></svg><svg x="7800"><use xlink:href="#a"/><use xlink:href="#10"/><use xlink:href="#11" y="2.171"/><use xlink:href="#12" y="4.342"/><use xlink:href="#13" y="6.513"/><use xlink:href="#20" y="10.855"/><use xlink:href="#24" y="15.197"/></svg><svg x="7900"><use xlink:href="#a"/><use xlink:href="#10"/><use xlink:href="#11" y="2.171"/><use xlink:href="#12" y="4.342"/><use xlink:href="#13" y="6.513"/><use xlink:href="#20" y="10.855"/><text y="16.867" class="f">$</text><text x="2.004" y="16.867" class="f">kubectl</text><text x="10.02" y="16.867" class="f">waitx</text><text x="16.032" y="16.867" class="f">pod</text><text x="20.04" y="16.867" class="f">demo-a</text><text x="27.054" y="16.867" class="f">-</text></svg><svg x="8000"><use xlink:href="#a"/><use xlink:href="#10"/><use xlink:href="#11" y="2.171"/><use xlink:href="#12" y="4.342"/><use xlink:href="#13" y="6.513"/><use xlink:href="#20" y="10.855"/><text y="16.867" class="f">$</text><text x="2.004" y="16.867" class="f">kubectl</text><text x="10.02" y="16.867" class="f">waitx</text><text x="16.032" y="16.867" class="f">pod</text><text x="20.04" y="16.867" class="f">demo-a</text><text x="27.054" y="16.867" class="f">--</text></svg><svg x="8100"><use xlink:href="#a"/><use xlink:href="#10"/><use xlink:href="#11" y="2.171"/><use xlink:href="#12" y="4.342"/><use xlink:href="#13" y="6.513"/><use xlink:href="#20" y="10.855"/><text y="16.867" class="f">$</text><text x="2.004" y="16.867" class="f">kubectl</text><text x="10.02" y="16.867" class="f">waitx</text><text x="16.032" y="16.867" class="f">pod</text><text x="20.04" y="16.867" class="f">demo-a</text><text x="27.054" y="16.867" class="f">--f</text></svg><svg x="8200"><use xlink:href="#a"/><use xlink:href="#10"/><use xlink:href="#11" y="2.171"/><use xlink:href="#12" y="4.342"/><use xlink:href="#13" y="6.513"/><use xlink:href="#20" y="10.855"/><text y="16.867" class="f">$</text><text x="2.004" y="16.867" class="f">kubectl</text><text x="10.02" y="16.867" class="f">waitx</text><text x="16.032" y="16.867" class="f">pod</text><text x="20.04" y="16.867" class="f">demo-a</text><text x="27.054" y="16.867" class="f">--fo</text></svg><svg x="8300"><use xlink:href="#a"/><use xlink:href="#10"/><use xlink:href="#11" y="2.171"/><use xlink:href="#12" y="4.342"/><use xlink:href="#13" y="6.513"/><use xlink:href="#20" y="10.855"/><text y="16.867" class="f">$</text><text x="2.004" y="16.867" class="f">kubectl</text><text x="10.02" y="16.867" class="f">waitx</text><text x="16.032" y="16.867" class="f">pod</text><text x="20.04" y="16.867" class="f">demo-a</text><text x="27.054" y="16.867" class="f">--for</text></svg><svg x="8400"><use xlink:href="#a"/><use xlink:href="#10"/><use xlink:href="#11" y="2.171"/><use xlink:href="#12" y="4.342"/><use xlink:href="#13" y="6.513"/><use xlink:href="#20" y="10.855"/><use xlink:href="#25" y="15.197"/></svg><svg x="8500"><use xlink:href="#a"/><use xlink:href="#10"/><use xlink:href="#11" y="2.171"/><use xlink:href="#12" y="4.342"/><use xlink:href="#13" y="6.513"/><use xlink:href="#20" y="10.855"/><use xlink:href="#25" y="15.197"/><text y="19.038" class="f">condition=</text><text x="12.024" y="19.038" class="f">create</text><text x="24.048" y="19.038" class="f">delete</text><text x="36.072" y="19.038" class="f">jsonpath=</text></svg><svg x="8600"><use xlink:href="#a"/><use xlink:href="#10"/><use xlink:href="#11" y="2.171"/><use xlink:href="#12" y="4.342"/><use xlink:href="#13" y="6.513"/><use xlink:href="#20" y="10.855"/><use xlink:href="#26" y="15.197"/></svg><svg x="8700"><use xlink:href="#a"/><use xlink:href="#10"/><use xlink:href="#11" y="2.171"/><use xlink:href="#12" y="4.342"/><use xlink:href="#13" y="6.513"/><use xlink:href="#20" y="10.855"/><use xlink:href="#26" y="15.197"/><use xlink:href="#27" y="17.368"/></svg><svg x="8800"><use xlink:href="#a"/><use xlink:href="#10"/><use xlink:href="#11" y="2.171"/><use xlink:href="#12" y="4.342"/><use xlink:href="#13" y="6.513"/><use xlink:href="#20" y="10.855"/><use xlink:href="#26" y="15.197"/><use xlink:href="#27" y="17.368"/><text y="21.209" class="f">Initialized</text><text x="27.054" y="21.209" class="f">PodScheduled</text></svg><svg x="8900"><use xlink:href="#a"/><use xlink:href="#10"/><use xlink:href="#11" y="2.171"/><use xlink:href="#12" y="4.342"/><use xlink:href="#13" y="6.513"/><use xlink:href="#20" y="10.855"/><use xlink:href="#28" y="15.197"/></svg><svg x="9000"><use xlink:href="#a"/><use xlink:href="#10"/><use xlink:href="#11" y="2.171"/><use xlink:href="#12" y="4.342"/><use xlink:href="#13" y="6.513"/><use xlink:href="#20" y="10.855"/><use xlink:href="#28" y="15.197"/><text y="19.038" class="f">pod/demo-a</text><text x="11.022" y="19.038" class="f">condition</text><text x="21.042" y="19.038" class="f">met</text><use xlink:href="#1" y="21.71"/></svg></svg></g></g></svg></svg>